<svg width="151" height="56" viewBox="0 0 151 56" fill="none" xmlns="http://www.w3.org/2000/svg">
<path d="M33.292 13.6201C34.9443 13.6904 37.0229 13.7256 39.5278 13.7256L44.6299 27.542H44.6958L50.0088 13.7256H51.5249C52.6147 13.7256 54.1528 13.6904 56.1392 13.6201C56.1743 13.7607 56.1919 13.8574 56.1919 13.9102C56.1919 13.9717 56.1743 14.0815 56.1392 14.2397C55.8228 14.2661 55.5679 14.2925 55.3745 14.3188C55.1812 14.3452 54.9219 14.3892 54.5967 14.4507C54.2803 14.5122 54.0254 14.5869 53.832 14.6748C53.6387 14.7539 53.4673 14.8682 53.3179 15.0176C53.1685 15.1582 53.0894 15.3208 53.0806 15.5054C52.9927 17.5708 52.9487 20.0273 52.9487 22.875C52.9487 25.7666 53.0059 28.5396 53.1201 31.1938C53.1289 31.4224 53.23 31.6201 53.4233 31.7871C53.6167 31.9453 53.8936 32.0684 54.2539 32.1562C54.623 32.2441 54.9307 32.3101 55.1768 32.354C55.4316 32.3892 55.7612 32.4243 56.1655 32.4595C56.2007 32.6001 56.2183 32.7188 56.2183 32.8154C56.2183 32.8857 56.2007 32.9736 56.1655 33.0791C54.6802 33.0264 53.1509 33 51.5776 33C49.9956 33 48.4663 33.0264 46.9897 33.0791C46.9546 32.9736 46.937 32.8857 46.937 32.8154C46.937 32.666 46.9546 32.5474 46.9897 32.4595C47.394 32.4243 47.7192 32.3892 47.9653 32.354C48.2202 32.3101 48.5278 32.2441 48.8882 32.1562C49.2573 32.0684 49.5386 31.9453 49.7319 31.7871C49.9253 31.6201 50.0264 31.4224 50.0352 31.1938C50.123 28.4517 50.167 26.0039 50.167 23.8506C50.167 21.7852 50.123 19.4341 50.0352 16.7974H49.9297L43.9048 32.6704H43.7729L37.3525 16.481H37.2075C37.1372 18.6167 37.1021 21.0732 37.1021 23.8506C37.1021 25.8896 37.146 28.2715 37.2339 30.9961C37.2515 31.7959 38.2227 32.2837 40.1475 32.4595C40.1914 32.6089 40.2134 32.7275 40.2134 32.8154C40.2134 32.9033 40.1914 32.9912 40.1475 33.0791C38.75 33.0264 37.502 33 36.4033 33C35.7002 33 34.5225 33.0264 32.8701 33.0791C32.8262 32.9912 32.8042 32.9033 32.8042 32.8154C32.8042 32.666 32.8262 32.5474 32.8701 32.4595C34.8125 32.2749 35.7837 31.7871 35.7837 30.9961C35.8892 28.2539 35.9419 25.5469 35.9419 22.875C35.9419 20.9502 35.9155 18.9067 35.8628 16.7446C35.854 16.3755 35.832 16.0679 35.7969 15.8218C35.7617 15.5669 35.6958 15.3472 35.5991 15.1626C35.5024 14.978 35.4014 14.833 35.2959 14.7275C35.1904 14.6221 35.0278 14.5298 34.8081 14.4507C34.5884 14.3628 34.373 14.3013 34.1621 14.2661C33.96 14.2222 33.6699 14.1738 33.292 14.1211C33.2568 14.0508 33.2393 13.9717 33.2393 13.8838C33.2393 13.7783 33.2568 13.6904 33.292 13.6201ZM56.2842 21.3062C57.4443 21.3589 58.6177 21.3853 59.8042 21.3853C60.8853 21.3853 61.9927 21.3589 63.1265 21.3062C63.1616 21.4468 63.1792 21.5566 63.1792 21.6357C63.1792 21.6885 63.1616 21.7852 63.1265 21.9258C62.8628 21.9434 62.6519 21.9653 62.4937 21.9917C62.3354 22.0093 62.1289 22.0444 61.874 22.0972C61.6279 22.1499 61.439 22.229 61.3071 22.3345C61.1841 22.4399 61.1226 22.5674 61.1226 22.7168C61.1226 22.7959 61.1577 22.9585 61.228 23.2046L63.9043 29.8623H63.9834L66.5278 23.2046C66.6157 22.9849 66.6597 22.7959 66.6597 22.6377C66.6597 22.2334 66.1543 21.9961 65.1436 21.9258C65.1084 21.7852 65.0908 21.6885 65.0908 21.6357C65.0908 21.5566 65.1084 21.4468 65.1436 21.3062C66.1719 21.3589 66.8135 21.3853 67.0684 21.3853C67.8066 21.3853 68.7427 21.3589 69.8765 21.3062C69.9116 21.4116 69.9292 21.5039 69.9292 21.583C69.9292 21.6357 69.9116 21.75 69.8765 21.9258C68.7778 21.9697 68.0659 22.396 67.7407 23.2046L63.667 32.9473H63.6934L62.23 36.7837C61.6851 38.2075 61.1753 39.1699 60.7007 39.6709C60.2349 40.1719 59.6372 40.4224 58.9077 40.4224C58.3188 40.4224 57.8267 40.2466 57.4312 39.895C57.0444 39.5435 56.8511 39.082 56.8511 38.5107C56.8511 37.9922 56.9961 37.5835 57.2861 37.2847C57.5762 36.9858 57.9365 36.8364 58.3672 36.8364C58.7627 36.8364 59.0659 36.9551 59.2769 37.1924C59.4966 37.4297 59.6064 37.6978 59.6064 37.9966C59.6064 38.4185 59.4175 38.7524 59.0396 38.9985C59.0835 39.1919 59.2285 39.2886 59.4746 39.2886C59.7559 39.2886 60.0195 39.126 60.2656 38.8008C60.5117 38.4844 60.8325 37.8032 61.228 36.7573L62.6914 33L58.5781 23.2046C58.4814 22.9849 58.3452 22.7959 58.1694 22.6377C57.9937 22.4707 57.7783 22.3433 57.5234 22.2554C57.2773 22.1587 57.0708 22.0928 56.9038 22.0576C56.7368 22.0137 56.5303 21.9697 56.2842 21.9258C56.249 21.8555 56.2314 21.7588 56.2314 21.6357C56.2314 21.5039 56.249 21.394 56.2842 21.3062ZM69.4414 13.6201C71.3223 13.6904 72.7988 13.7256 73.8711 13.7256C74.8994 13.7256 76.0332 13.6904 77.2725 13.6201C77.3076 13.7607 77.3252 13.8574 77.3252 13.9102C77.3252 14.0068 77.3076 14.1167 77.2725 14.2397C76.5078 14.2749 75.9805 14.3716 75.6904 14.5298C75.4092 14.6792 75.2686 14.877 75.2686 15.123C75.2686 15.1934 75.2773 15.2769 75.2949 15.3735C75.3213 15.4614 77.1055 19.8691 80.6475 28.5967H80.7793L83.3501 21.7412L81.0298 15.8613C80.6606 14.9121 79.7773 14.3716 78.3799 14.2397C78.3447 14.0815 78.3271 13.9717 78.3271 13.9102C78.3271 13.8223 78.3447 13.7256 78.3799 13.6201C79.6191 13.6904 80.9946 13.7256 82.5063 13.7256C83.895 13.7256 85.209 13.6904 86.4482 13.6201C86.4834 13.7607 86.501 13.8574 86.501 13.9102C86.501 14.0068 86.4834 14.1167 86.4482 14.2397C85.3848 14.2749 84.6948 14.3584 84.3784 14.4902C84.0708 14.6133 83.917 14.8506 83.917 15.2021C83.917 15.2109 83.9785 15.4307 84.1016 15.8613L88.9663 28.5967H89.0981L93.9102 15.6899C93.9629 15.5581 93.9893 15.3867 93.9893 15.1758C93.9893 14.8945 93.8179 14.6924 93.4751 14.5693C93.1323 14.4375 92.5742 14.3276 91.8008 14.2397C91.7656 14.0464 91.748 13.9277 91.748 13.8838C91.748 13.8135 91.7656 13.7256 91.8008 13.6201C92.8818 13.6729 93.9146 13.6992 94.8989 13.6992C95.8569 13.6992 96.8018 13.6729 97.7334 13.6201C97.7686 13.7256 97.7861 13.8135 97.7861 13.8838C97.7861 14.0244 97.7686 14.1431 97.7334 14.2397C97.1094 14.3013 96.5908 14.4331 96.1777 14.6353C95.7734 14.8374 95.457 15.189 95.2285 15.6899L88.5312 33.3823H87.938L83.9697 23.3364L80.2124 33.3823H79.6191L72.3813 15.8613C71.9946 14.9297 71.0146 14.3892 69.4414 14.2397C69.4062 14.0815 69.3887 13.9717 69.3887 13.9102C69.3887 13.8223 69.4062 13.7256 69.4414 13.6201ZM99.8955 24.3384C99.8955 23.3716 100.335 22.5762 101.214 21.9521C102.102 21.3281 103.147 21.0161 104.352 21.0161C105.828 21.0161 106.865 21.3105 107.463 21.8994C108.069 22.4883 108.373 23.4814 108.373 24.8789V30.3501C108.373 30.8423 108.553 31.0884 108.913 31.0884C109.203 31.0884 109.572 30.7368 110.021 30.0337C110.337 30.0601 110.552 30.2007 110.667 30.4556C110.605 30.5435 110.5 30.7017 110.35 30.9302C110.201 31.1587 110.091 31.3213 110.021 31.418C109.95 31.5146 109.84 31.6641 109.691 31.8662C109.542 32.0596 109.418 32.2046 109.322 32.3013C109.234 32.3979 109.111 32.5122 108.953 32.644C108.803 32.7759 108.663 32.877 108.531 32.9473C108.408 33.0088 108.263 33.0615 108.096 33.1055C107.929 33.1582 107.762 33.1846 107.595 33.1846C107.155 33.1846 106.791 33.0264 106.5 32.71C106.219 32.3936 106.052 31.9058 106 31.2466C105.991 31.2554 105.854 31.3828 105.591 31.6289C105.327 31.875 105.143 32.042 105.037 32.1299C104.94 32.209 104.751 32.354 104.47 32.5649C104.198 32.7671 103.965 32.9121 103.771 33C103.578 33.0879 103.336 33.1714 103.046 33.2505C102.756 33.3384 102.471 33.3823 102.189 33.3823C101.741 33.3823 101.341 33.3208 100.99 33.1978C100.647 33.0747 100.379 32.9253 100.186 32.7495C99.9922 32.5737 99.834 32.3716 99.7109 32.1431C99.5879 31.9058 99.5044 31.6904 99.4604 31.4971C99.4253 31.3037 99.4077 31.1104 99.4077 30.917C99.4077 30.3281 99.5044 29.8315 99.6978 29.4272C99.8999 29.0229 100.269 28.645 100.805 28.2935C101.35 27.9419 102.018 27.6299 102.809 27.3574C103.6 27.085 104.664 26.7773 106 26.4346V24.6021C106 23.7144 105.802 23.0508 105.406 22.6113C105.02 22.1719 104.497 21.9521 103.837 21.9521C103.249 21.9521 102.752 22.0708 102.348 22.3081C101.952 22.5366 101.71 22.8047 101.623 23.1123C102.484 23.2441 102.915 23.7144 102.915 24.5229C102.915 24.8921 102.783 25.2173 102.519 25.4985C102.255 25.7798 101.886 25.9204 101.412 25.9204C101.016 25.9204 100.665 25.7842 100.357 25.5117C100.049 25.2305 99.8955 24.8394 99.8955 24.3384ZM106 30.0337V27.2783C105.191 27.4629 104.523 27.665 103.996 27.8848C103.468 28.0957 103.064 28.3286 102.783 28.5835C102.51 28.8384 102.321 29.1021 102.216 29.3745C102.11 29.6382 102.058 29.9458 102.058 30.2974C102.058 30.7368 102.185 31.084 102.44 31.3389C102.704 31.585 103.024 31.708 103.402 31.708C104.281 31.708 105.147 31.1499 106 30.0337ZM110.442 21.3062C111.603 21.3589 112.776 21.3853 113.962 21.3853C115.043 21.3853 116.151 21.3589 117.285 21.3062C117.32 21.4468 117.337 21.5566 117.337 21.6357C117.337 21.6885 117.32 21.7852 117.285 21.9258C117.021 21.9434 116.81 21.9653 116.652 21.9917C116.494 22.0093 116.287 22.0444 116.032 22.0972C115.786 22.1499 115.597 22.229 115.465 22.3345C115.342 22.4399 115.281 22.5674 115.281 22.7168C115.281 22.7959 115.316 22.9585 115.386 23.2046L118.062 29.8623H118.142L120.686 23.2046C120.774 22.9849 120.818 22.7959 120.818 22.6377C120.818 22.2334 120.312 21.9961 119.302 21.9258C119.267 21.7852 119.249 21.6885 119.249 21.6357C119.249 21.5566 119.267 21.4468 119.302 21.3062C120.33 21.3589 120.972 21.3853 121.227 21.3853C121.965 21.3853 122.901 21.3589 124.035 21.3062C124.07 21.4116 124.087 21.5039 124.087 21.583C124.087 21.6357 124.07 21.75 124.035 21.9258C122.936 21.9697 122.224 22.396 121.899 23.2046L117.825 32.9473H117.852L116.388 36.7837C115.843 38.2075 115.333 39.1699 114.859 39.6709C114.393 40.1719 113.795 40.4224 113.066 40.4224C112.477 40.4224 111.985 40.2466 111.589 39.895C111.203 39.5435 111.009 39.082 111.009 38.5107C111.009 37.9922 111.154 37.5835 111.444 37.2847C111.734 36.9858 112.095 36.8364 112.525 36.8364C112.921 36.8364 113.224 36.9551 113.435 37.1924C113.655 37.4297 113.765 37.6978 113.765 37.9966C113.765 38.4185 113.576 38.7524 113.198 38.9985C113.242 39.1919 113.387 39.2886 113.633 39.2886C113.914 39.2886 114.178 39.126 114.424 38.8008C114.67 38.4844 114.991 37.8032 115.386 36.7573L116.85 33L112.736 23.2046C112.64 22.9849 112.503 22.7959 112.328 22.6377C112.152 22.4707 111.937 22.3433 111.682 22.2554C111.436 22.1587 111.229 22.0928 111.062 22.0576C110.895 22.0137 110.688 21.9697 110.442 21.9258C110.407 21.8555 110.39 21.7588 110.39 21.6357C110.39 21.5039 110.407 21.394 110.442 21.3062Z" fill="#070707"/>
<path d="M79.9364 38.5015C166.841 -0.131778 75.7273 24.4728 19.3071 41.6043" stroke="black"/>
<path d="M85.5924 42C193.734 -0.850216 83.5898 14.8467 15 28.0514" stroke="black"/>
</svg>
