<svg width="30" height="30" viewBox="0 0 30 30" fill="none" xmlns="http://www.w3.org/2000/svg">
<path fill-rule="evenodd" clip-rule="evenodd" d="M4.758 7.758C5.88317 6.63317 7.40901 6.00128 9 6.00128C10.591 6.00128 12.1168 6.63317 13.242 7.758L15 9.5145L16.758 7.758C17.3115 7.18494 17.9735 6.72784 18.7056 6.41339C19.4376 6.09894 20.2249 5.93342 21.0216 5.9265C21.8183 5.91957 22.6083 6.07138 23.3457 6.37307C24.0831 6.67475 24.753 7.12027 25.3164 7.68363C25.8797 8.24698 26.3252 8.9169 26.6269 9.65427C26.9286 10.3917 27.0804 11.1817 27.0735 11.9784C27.0666 12.7751 26.9011 13.5624 26.5866 14.2944C26.2722 15.0264 25.8151 15.6885 25.242 16.242L15 26.4855L4.758 16.242C3.63317 15.1168 3.00128 13.591 3.00128 12C3.00128 10.409 3.63317 8.88316 4.758 7.758V7.758Z" stroke="black" stroke-width="2" stroke-linejoin="round"/>
</svg>
