<svg width="60" height="60" viewBox="0 0 60 60" fill="none" xmlns="http://www.w3.org/2000/svg">
<rect width="60" height="60" fill="#D9D9D9"/>
<path d="M30 36L29.3438 36.7546C29.7201 37.0818 30.2799 37.0818 30.6562 36.7546L30 36ZM16.7732 36.6928C17.3045 36.5419 17.6128 35.989 17.462 35.4577C17.3111 34.9264 16.7581 34.618 16.2268 34.7689L16.7732 36.6928ZM43.7732 34.7689C43.2419 34.618 42.6889 34.9264 42.538 35.4577C42.3872 35.989 42.6955 36.5419 43.2268 36.6928L43.7732 34.7689ZM41 17.7391C41 19.4576 40.3347 21.4055 39.2455 23.4181C38.1636 25.4172 36.7085 27.3985 35.2329 29.1628C33.7601 30.9237 32.2845 32.4478 31.1757 33.5324C30.6219 34.0742 30.1612 34.5048 29.8401 34.799C29.6796 34.9461 29.5541 35.0589 29.4694 35.1344C29.4271 35.1721 29.3949 35.2005 29.3738 35.2191C29.3632 35.2285 29.3553 35.2353 29.3503 35.2397C29.3478 35.2419 29.346 35.2435 29.3449 35.2444C29.3444 35.2449 29.344 35.2452 29.3438 35.2454C29.3437 35.2455 29.3437 35.2455 29.3437 35.2455C29.3437 35.2455 29.3438 35.2454 30 36C30.6562 36.7546 30.6564 36.7544 30.6566 36.7542C30.6567 36.7541 30.657 36.7539 30.6573 36.7537C30.6578 36.7532 30.6586 36.7525 30.6595 36.7517C30.6613 36.7502 30.6638 36.7479 30.6671 36.7451C30.6736 36.7394 30.683 36.7312 30.6951 36.7205C30.7193 36.6992 30.7546 36.668 30.8001 36.6274C30.8912 36.5462 31.0235 36.4272 31.1911 36.2737C31.5263 35.9666 32.0031 35.5209 32.5743 34.9621C33.7155 33.8457 35.2399 32.2719 36.7671 30.4459C38.2915 28.6232 39.8364 26.5284 41.0045 24.37C42.1653 22.2249 43 19.9337 43 17.7391H41ZM30 36C30.6562 35.2454 30.6563 35.2455 30.6563 35.2455C30.6563 35.2455 30.6563 35.2455 30.6562 35.2454C30.656 35.2452 30.6556 35.2449 30.6551 35.2444C30.654 35.2435 30.6522 35.2419 30.6497 35.2397C30.6447 35.2353 30.6368 35.2285 30.6262 35.2191C30.6051 35.2005 30.5729 35.1721 30.5306 35.1344C30.4459 35.0589 30.3204 34.9461 30.1599 34.799C29.8388 34.5048 29.3781 34.0742 28.8243 33.5324C27.7155 32.4478 26.2399 30.9237 24.7671 29.1628C23.2915 27.3985 21.8364 25.4172 20.7545 23.4181C19.6653 21.4055 19 19.4576 19 17.7391H17C17 19.9337 17.8347 22.2249 18.9955 24.37C20.1636 26.5284 21.7085 28.6232 23.2329 30.4459C24.7601 32.2719 26.2845 33.8457 27.4257 34.9621C27.9969 35.5209 28.4737 35.9666 28.8089 36.2737C28.9765 36.4272 29.1088 36.5462 29.1999 36.6274C29.2454 36.668 29.2807 36.6992 29.3049 36.7205C29.317 36.7312 29.3264 36.7394 29.3329 36.7451C29.3362 36.7479 29.3387 36.7502 29.3405 36.7517C29.3414 36.7525 29.3422 36.7532 29.3427 36.7537C29.343 36.7539 29.3433 36.7541 29.3434 36.7542C29.3436 36.7544 29.3438 36.7546 30 36ZM19 17.7391C19 11.8287 23.904 7 30 7V5C22.8411 5 17 10.6829 17 17.7391H19ZM30 7C36.096 7 41 11.8287 41 17.7391H43C43 10.6829 37.1589 5 30 5V7ZM53 44C53 45.0324 52.5021 46.1064 51.4122 47.1801C50.3187 48.2572 48.6852 49.2733 46.5859 50.148C42.3918 51.8955 36.5284 53 30 53V55C36.7264 55 42.863 53.8659 47.3552 51.9941C49.5991 51.0592 51.4803 49.9204 52.8157 48.6048C54.1547 47.2858 55 45.7291 55 44H53ZM30 53C23.4716 53 17.6082 51.8955 13.4141 50.148C11.3148 49.2733 9.68127 48.2572 8.58782 47.1801C7.4979 46.1064 7 45.0324 7 44H5C5 45.7291 5.84524 47.2858 7.18426 48.6048C8.51974 49.9204 10.4009 51.0592 12.6448 51.9941C17.137 53.8659 23.2736 55 30 55V53ZM7 44C7 42.7179 7.77529 41.3603 9.48362 40.0435C11.1819 38.7345 13.6771 37.572 16.7732 36.6928L16.2268 34.7689C12.9846 35.6896 10.2298 36.9432 8.26264 38.4595C6.30555 39.968 5 41.845 5 44H7ZM43.2268 36.6928C46.3229 37.572 48.8181 38.7345 50.5164 40.0435C52.2247 41.3603 53 42.7179 53 44H55C55 41.845 53.6944 39.968 51.7374 38.4595C49.7702 36.9432 47.0154 35.6896 43.7732 34.7689L43.2268 36.6928Z" fill="black"/>
</svg>
