<svg width="46" height="46" viewBox="0 0 46 46" fill="none" xmlns="http://www.w3.org/2000/svg">
<circle cx="23" cy="23" r="23" fill="#D9D9D9"/>
<path d="M23.0002 17V17.0332M17.0332 23.0002H17M27.243 18.7575L27.2195 18.781M18.7812 27.2193L18.7577 27.2428M18.7812 18.7807L18.7577 18.7572M23 32.6C17.6981 32.6 13.4 28.3019 13.4 23C13.4 17.6981 17.6981 13.4 23 13.4C28.3019 13.4 32.6 17.6981 32.6 23C32.6 24.6141 31.1086 25.688 29.4946 25.688H28.868C28.5444 25.688 28.2253 25.7633 27.936 25.908C26.9065 26.4227 26.4893 27.6745 27.004 28.704C27.1487 28.9933 27.224 29.3124 27.224 29.636V29.8251C27.224 30.9257 26.6064 31.9679 25.545 32.259C24.7345 32.4813 23.8811 32.6 23 32.6Z" stroke="black" stroke-width="2" stroke-linecap="round" stroke-linejoin="round"/>
</svg>
