<svg width="46" height="46" viewBox="0 0 46 46" fill="none" xmlns="http://www.w3.org/2000/svg">
<circle cx="23" cy="23" r="23" fill="#D9D9D9"/>
<path d="M29.8567 31.2001C30.409 31.2001 30.8567 30.7524 30.8567 30.2001C30.8567 29.6478 30.409 29.2001 29.8567 29.2001V31.2001ZM16.1427 29.2001C15.5904 29.2001 15.1427 29.6478 15.1427 30.2001C15.1427 30.7524 15.5904 31.2001 16.1427 31.2001V29.2001ZM13.3999 24.9019C12.8476 24.9019 12.3999 25.3496 12.3999 25.9019C12.3999 26.4542 12.8476 26.9019 13.3999 26.9019V24.9019ZM32.5995 26.9019C33.1517 26.9019 33.5995 26.4542 33.5995 25.9019C33.5995 25.3496 33.1517 24.9019 32.5995 24.9019V26.9019ZM15.2452 23.0483C15.7047 23.3547 16.3256 23.2305 16.6319 22.771C16.9383 22.3114 16.8141 21.6906 16.3546 21.3842L15.2452 23.0483ZM14.2975 20.0128C13.838 19.7065 13.2171 19.8306 12.9107 20.2902C12.6044 20.7497 12.7286 21.3706 13.1881 21.6769L14.2975 20.0128ZM19.1034 18.4596C19.3481 18.9547 19.9479 19.1576 20.443 18.9128C20.9381 18.668 21.141 18.0682 20.8962 17.5731L19.1034 18.4596ZM19.8004 15.3569C19.5556 14.8618 18.9558 14.6589 18.4607 14.9037C17.9657 15.1485 17.7628 15.7483 18.0076 16.2434L19.8004 15.3569ZM24.7907 17.3023C24.4843 17.7618 24.6085 18.3827 25.068 18.689C25.5275 18.9954 26.1484 18.8712 26.4548 18.4117L24.7907 17.3023ZM27.8262 16.3546C28.1325 15.8951 28.0083 15.2742 27.5488 14.9678C27.0893 14.6615 26.4684 14.7857 26.1621 15.2452L27.8262 16.3546ZM32.8021 21.7413C33.2972 21.4965 33.5001 20.8967 33.2553 20.4016C33.0105 19.9066 32.4107 19.7037 31.9157 19.9484L32.8021 21.7413ZM29.6995 21.0442C29.2044 21.289 29.0015 21.8888 29.2463 22.3839C29.4911 22.879 30.0908 23.0819 30.5859 22.8371L29.6995 21.0442ZM29.8567 29.2001H16.1427V31.2001H29.8567V29.2001ZM13.3999 26.9019H32.5995V24.9019H13.3999V26.9019ZM19.1998 25.9019C19.1998 23.8033 20.9011 22.102 22.9997 22.102V20.102C19.7965 20.102 17.1998 22.6987 17.1998 25.9019H19.1998ZM22.9997 22.102C25.0983 22.102 26.7996 23.8033 26.7996 25.9019H28.7996C28.7996 22.6987 26.2029 20.102 22.9997 20.102V22.102ZM16.3546 21.3842L14.2975 20.0128L13.1881 21.6769L15.2452 23.0483L16.3546 21.3842ZM20.8962 17.5731L19.8004 15.3569L18.0076 16.2434L19.1034 18.4596L20.8962 17.5731ZM26.4548 18.4117L27.8262 16.3546L26.1621 15.2452L24.7907 17.3023L26.4548 18.4117ZM31.9157 19.9484L29.6995 21.0442L30.5859 22.8371L32.8021 21.7413L31.9157 19.9484Z" fill="black"/>
</svg>
