<svg width="238" height="77" viewBox="0 0 238 77" fill="none" xmlns="http://www.w3.org/2000/svg">
<g filter="url(#filter0_d_71_38)">
<path d="M5 31C5 14.4315 18.4315 1 35 1H203C219.569 1 233 14.4315 233 31V38C233 54.5685 219.569 68 203 68H35C18.4315 68 5 54.5685 5 38V31Z" fill="#FAFAFA"/>
<path d="M5.5 31C5.5 14.7076 18.7076 1.5 35 1.5H203C219.292 1.5 232.5 14.7076 232.5 31V38C232.5 54.2924 219.292 67.5 203 67.5H35C18.7076 67.5 5.5 54.2924 5.5 38V31Z" stroke="black"/>
</g>
<g filter="url(#filter1_d_71_38)">
<path d="M102.672 41.0352C102.383 41.0352 102.172 41 102.039 40.9297C101.906 40.8516 101.84 40.7344 101.84 40.5781V28.0039H97.832C97.6836 28.0039 97.5781 27.9531 97.5156 27.8516C97.4531 27.75 97.4219 27.5938 97.4219 27.3828V27.043C97.4219 26.8242 97.4531 26.668 97.5156 26.5742C97.5781 26.4727 97.6836 26.4219 97.832 26.4219H107.605C107.754 26.4219 107.859 26.4727 107.922 26.5742C107.984 26.668 108.016 26.8242 108.016 27.043V27.3828C108.016 27.5938 107.984 27.75 107.922 27.8516C107.859 27.9531 107.754 28.0039 107.605 28.0039H103.68V40.5781C103.68 40.8828 103.398 41.0352 102.836 41.0352H102.672ZM112.387 41.1172C111.324 41.1172 110.465 40.8555 109.809 40.332C109.152 39.8086 108.824 39.0312 108.824 38C108.824 36.9141 109.156 36.0977 109.82 35.5508C110.484 34.9961 111.293 34.6406 112.246 34.4844C113.207 34.3203 114.371 34.2266 115.738 34.2031V33.2188C115.738 32.6953 115.559 32.2773 115.199 31.9648C114.848 31.6445 114.266 31.4844 113.453 31.4844C112.836 31.4844 112.293 31.5586 111.824 31.707C111.363 31.8477 110.93 32.0195 110.523 32.2227C110.352 32.3086 110.246 32.3516 110.207 32.3516C110.113 32.3516 110.008 32.2852 109.891 32.1523C109.781 32.0117 109.684 31.8555 109.598 31.6836C109.52 31.5117 109.48 31.3867 109.48 31.3086C109.48 31.1289 109.664 30.9336 110.031 30.7227C110.406 30.5117 110.895 30.3359 111.496 30.1953C112.098 30.0547 112.727 29.9844 113.383 29.9844C114.688 29.9844 115.699 30.2695 116.418 30.8398C117.137 31.4102 117.496 32.2109 117.496 33.2422V37.918C117.496 38.8242 117.535 39.4805 117.613 39.8867C117.699 40.2852 117.742 40.5039 117.742 40.543C117.742 40.7148 117.609 40.8398 117.344 40.918C117.086 40.9883 116.844 41.0234 116.617 41.0234C116.43 41.0234 116.289 40.918 116.195 40.707C116.109 40.4961 116.023 40.1914 115.938 39.793L115.891 39.5586C115.461 40.0352 114.953 40.4141 114.367 40.6953C113.789 40.9766 113.129 41.1172 112.387 41.1172ZM112.48 39.6055C113.168 39.6055 113.754 39.4805 114.238 39.2305C114.723 38.9805 115.223 38.625 115.738 38.1641V35.7031C114.707 35.7109 113.859 35.7539 113.195 35.832C112.531 35.9102 111.949 36.1094 111.449 36.4297C110.949 36.7422 110.699 37.2305 110.699 37.8945C110.699 38.4492 110.848 38.875 111.145 39.1719C111.449 39.4609 111.895 39.6055 112.48 39.6055ZM121.809 41.0352C121.512 41.0352 121.297 41 121.164 40.9297C121.031 40.8516 120.965 40.7344 120.965 40.5781V33.2656C120.965 32.3594 120.922 31.707 120.836 31.3086C120.75 30.9023 120.707 30.6797 120.707 30.6406C120.707 30.4688 120.836 30.3477 121.094 30.2773C121.359 30.1992 121.609 30.1602 121.844 30.1602C122.039 30.1602 122.184 30.2656 122.277 30.4766C122.371 30.6875 122.438 30.9023 122.477 31.1211C122.523 31.3398 122.555 31.4805 122.57 31.543C123.008 31.0508 123.512 30.668 124.082 30.3945C124.66 30.1211 125.242 29.9844 125.828 29.9844C126.891 29.9844 127.719 30.2852 128.312 30.8867C128.914 31.4805 129.215 32.3008 129.215 33.3477V40.5781C129.215 40.7344 129.148 40.8516 129.016 40.9297C128.883 41 128.672 41.0352 128.383 41.0352H128.289C128.008 41.0352 127.801 41 127.668 40.9297C127.535 40.8516 127.469 40.7344 127.469 40.5781V33.5234C127.469 32.8828 127.281 32.3867 126.906 32.0352C126.539 31.6758 126.02 31.4961 125.348 31.4961C124.879 31.4961 124.406 31.6289 123.93 31.8945C123.461 32.1523 123.055 32.5078 122.711 32.9609V40.5781C122.711 40.7344 122.645 40.8516 122.512 40.9297C122.379 41 122.172 41.0352 121.891 41.0352H121.809ZM136.047 45.418C134.719 45.418 133.668 45.2109 132.895 44.7969C132.121 44.3828 131.734 43.7305 131.734 42.8398C131.734 42.2305 131.91 41.6992 132.262 41.2461C132.613 40.793 133.07 40.4531 133.633 40.2266L133.656 40.1797C133.383 39.9688 133.172 39.7266 133.023 39.4531C132.883 39.1797 132.812 38.8555 132.812 38.4805C132.812 37.5742 133.203 36.8477 133.984 36.3008C133.398 36.0195 132.953 35.625 132.648 35.1172C132.344 34.6016 132.191 34.0234 132.191 33.3828C132.191 32.7422 132.348 32.1641 132.66 31.6484C132.98 31.1328 133.449 30.7266 134.066 30.4297C134.684 30.1328 135.426 29.9844 136.293 29.9844C136.754 29.9844 137.164 30.0234 137.523 30.1016H141.309C141.457 30.1016 141.562 30.1523 141.625 30.2539C141.695 30.3477 141.73 30.5039 141.73 30.7227V30.9805C141.73 31.1992 141.695 31.3594 141.625 31.4609C141.562 31.5547 141.457 31.6016 141.309 31.6016C140.785 31.6016 140.301 31.582 139.855 31.543L139.832 31.5781C140.012 31.8281 140.145 32.1094 140.23 32.4219C140.324 32.7266 140.371 33.0469 140.371 33.3828C140.371 34.0234 140.211 34.6016 139.891 35.1172C139.578 35.6328 139.113 36.0391 138.496 36.3359C137.887 36.6328 137.145 36.7812 136.27 36.7812C135.613 36.8047 135.117 36.9258 134.781 37.1445C134.453 37.3633 134.289 37.7227 134.289 38.2227C134.289 38.5898 134.406 38.8711 134.641 39.0664C134.883 39.2617 135.184 39.3984 135.543 39.4766C135.902 39.5547 136.402 39.6289 137.043 39.6992L137.652 39.7695C138.301 39.8555 138.844 39.9727 139.281 40.1211C139.719 40.2695 140.078 40.5156 140.359 40.8594C140.648 41.2031 140.793 41.6758 140.793 42.2773C140.793 43.2852 140.391 44.0586 139.586 44.5977C138.781 45.1445 137.602 45.418 136.047 45.418ZM136.27 35.3984C137.035 35.3984 137.645 35.2422 138.098 34.9297C138.551 34.6172 138.777 34.1055 138.777 33.3945C138.777 32.0508 137.941 31.3789 136.27 31.3789C134.621 31.3789 133.797 32.0508 133.797 33.3945C133.797 34.1055 134.02 34.6172 134.465 34.9297C134.918 35.2422 135.52 35.3984 136.27 35.3984ZM136.27 44C137.238 44 137.957 43.8711 138.426 43.6133C138.895 43.3633 139.129 42.9805 139.129 42.4648C139.129 42.1289 139.004 41.8672 138.754 41.6797C138.504 41.5 138.195 41.3711 137.828 41.293C137.469 41.2227 136.992 41.1562 136.398 41.0938C135.992 41.0469 135.656 41.0039 135.391 40.9648C135.133 40.9258 134.895 40.8711 134.676 40.8008C133.754 41.1914 133.293 41.7578 133.293 42.5C133.293 43.5 134.285 44 136.27 44ZM146.746 41.1172C145.684 41.1172 144.824 40.8555 144.168 40.332C143.512 39.8086 143.184 39.0312 143.184 38C143.184 36.9141 143.516 36.0977 144.18 35.5508C144.844 34.9961 145.652 34.6406 146.605 34.4844C147.566 34.3203 148.73 34.2266 150.098 34.2031V33.2188C150.098 32.6953 149.918 32.2773 149.559 31.9648C149.207 31.6445 148.625 31.4844 147.812 31.4844C147.195 31.4844 146.652 31.5586 146.184 31.707C145.723 31.8477 145.289 32.0195 144.883 32.2227C144.711 32.3086 144.605 32.3516 144.566 32.3516C144.473 32.3516 144.367 32.2852 144.25 32.1523C144.141 32.0117 144.043 31.8555 143.957 31.6836C143.879 31.5117 143.84 31.3867 143.84 31.3086C143.84 31.1289 144.023 30.9336 144.391 30.7227C144.766 30.5117 145.254 30.3359 145.855 30.1953C146.457 30.0547 147.086 29.9844 147.742 29.9844C149.047 29.9844 150.059 30.2695 150.777 30.8398C151.496 31.4102 151.855 32.2109 151.855 33.2422V37.918C151.855 38.8242 151.895 39.4805 151.973 39.8867C152.059 40.2852 152.102 40.5039 152.102 40.543C152.102 40.7148 151.969 40.8398 151.703 40.918C151.445 40.9883 151.203 41.0234 150.977 41.0234C150.789 41.0234 150.648 40.918 150.555 40.707C150.469 40.4961 150.383 40.1914 150.297 39.793L150.25 39.5586C149.82 40.0352 149.312 40.4141 148.727 40.6953C148.148 40.9766 147.488 41.1172 146.746 41.1172ZM146.84 39.6055C147.527 39.6055 148.113 39.4805 148.598 39.2305C149.082 38.9805 149.582 38.625 150.098 38.1641V35.7031C149.066 35.7109 148.219 35.7539 147.555 35.832C146.891 35.9102 146.309 36.1094 145.809 36.4297C145.309 36.7422 145.059 37.2305 145.059 37.8945C145.059 38.4492 145.207 38.875 145.504 39.1719C145.809 39.4609 146.254 39.6055 146.84 39.6055ZM156.168 41.0352C155.871 41.0352 155.656 41 155.523 40.9297C155.391 40.8516 155.324 40.7344 155.324 40.5781V33.2656C155.324 32.3594 155.281 31.707 155.195 31.3086C155.109 30.9023 155.066 30.6797 155.066 30.6406C155.066 30.4688 155.195 30.3477 155.453 30.2773C155.719 30.1992 155.969 30.1602 156.203 30.1602C156.398 30.1602 156.543 30.2656 156.637 30.4766C156.73 30.6875 156.797 30.9023 156.836 31.1211C156.883 31.3398 156.914 31.4805 156.93 31.543C157.367 31.0508 157.871 30.668 158.441 30.3945C159.02 30.1211 159.602 29.9844 160.188 29.9844C161.25 29.9844 162.078 30.2852 162.672 30.8867C163.273 31.4805 163.574 32.3008 163.574 33.3477V40.5781C163.574 40.7344 163.508 40.8516 163.375 40.9297C163.242 41 163.031 41.0352 162.742 41.0352H162.648C162.367 41.0352 162.16 41 162.027 40.9297C161.895 40.8516 161.828 40.7344 161.828 40.5781V33.5234C161.828 32.8828 161.641 32.3867 161.266 32.0352C160.898 31.6758 160.379 31.4961 159.707 31.4961C159.238 31.4961 158.766 31.6289 158.289 31.8945C157.82 32.1523 157.414 32.5078 157.07 32.9609V40.5781C157.07 40.7344 157.004 40.8516 156.871 40.9297C156.738 41 156.531 41.0352 156.25 41.0352H156.168ZM170.406 45.418C169.078 45.418 168.027 45.2109 167.254 44.7969C166.48 44.3828 166.094 43.7305 166.094 42.8398C166.094 42.2305 166.27 41.6992 166.621 41.2461C166.973 40.793 167.43 40.4531 167.992 40.2266L168.016 40.1797C167.742 39.9688 167.531 39.7266 167.383 39.4531C167.242 39.1797 167.172 38.8555 167.172 38.4805C167.172 37.5742 167.562 36.8477 168.344 36.3008C167.758 36.0195 167.312 35.625 167.008 35.1172C166.703 34.6016 166.551 34.0234 166.551 33.3828C166.551 32.7422 166.707 32.1641 167.02 31.6484C167.34 31.1328 167.809 30.7266 168.426 30.4297C169.043 30.1328 169.785 29.9844 170.652 29.9844C171.113 29.9844 171.523 30.0234 171.883 30.1016H175.668C175.816 30.1016 175.922 30.1523 175.984 30.2539C176.055 30.3477 176.09 30.5039 176.09 30.7227V30.9805C176.09 31.1992 176.055 31.3594 175.984 31.4609C175.922 31.5547 175.816 31.6016 175.668 31.6016C175.145 31.6016 174.66 31.582 174.215 31.543L174.191 31.5781C174.371 31.8281 174.504 32.1094 174.59 32.4219C174.684 32.7266 174.73 33.0469 174.73 33.3828C174.73 34.0234 174.57 34.6016 174.25 35.1172C173.938 35.6328 173.473 36.0391 172.855 36.3359C172.246 36.6328 171.504 36.7812 170.629 36.7812C169.973 36.8047 169.477 36.9258 169.141 37.1445C168.812 37.3633 168.648 37.7227 168.648 38.2227C168.648 38.5898 168.766 38.8711 169 39.0664C169.242 39.2617 169.543 39.3984 169.902 39.4766C170.262 39.5547 170.762 39.6289 171.402 39.6992L172.012 39.7695C172.66 39.8555 173.203 39.9727 173.641 40.1211C174.078 40.2695 174.438 40.5156 174.719 40.8594C175.008 41.2031 175.152 41.6758 175.152 42.2773C175.152 43.2852 174.75 44.0586 173.945 44.5977C173.141 45.1445 171.961 45.418 170.406 45.418ZM170.629 35.3984C171.395 35.3984 172.004 35.2422 172.457 34.9297C172.91 34.6172 173.137 34.1055 173.137 33.3945C173.137 32.0508 172.301 31.3789 170.629 31.3789C168.98 31.3789 168.156 32.0508 168.156 33.3945C168.156 34.1055 168.379 34.6172 168.824 34.9297C169.277 35.2422 169.879 35.3984 170.629 35.3984ZM170.629 44C171.598 44 172.316 43.8711 172.785 43.6133C173.254 43.3633 173.488 42.9805 173.488 42.4648C173.488 42.1289 173.363 41.8672 173.113 41.6797C172.863 41.5 172.555 41.3711 172.188 41.293C171.828 41.2227 171.352 41.1562 170.758 41.0938C170.352 41.0469 170.016 41.0039 169.75 40.9648C169.492 40.9258 169.254 40.8711 169.035 40.8008C168.113 41.1914 167.652 41.7578 167.652 42.5C167.652 43.5 168.645 44 170.629 44ZM181.105 41.1172C180.043 41.1172 179.184 40.8555 178.527 40.332C177.871 39.8086 177.543 39.0312 177.543 38C177.543 36.9141 177.875 36.0977 178.539 35.5508C179.203 34.9961 180.012 34.6406 180.965 34.4844C181.926 34.3203 183.09 34.2266 184.457 34.2031V33.2188C184.457 32.6953 184.277 32.2773 183.918 31.9648C183.566 31.6445 182.984 31.4844 182.172 31.4844C181.555 31.4844 181.012 31.5586 180.543 31.707C180.082 31.8477 179.648 32.0195 179.242 32.2227C179.07 32.3086 178.965 32.3516 178.926 32.3516C178.832 32.3516 178.727 32.2852 178.609 32.1523C178.5 32.0117 178.402 31.8555 178.316 31.6836C178.238 31.5117 178.199 31.3867 178.199 31.3086C178.199 31.1289 178.383 30.9336 178.75 30.7227C179.125 30.5117 179.613 30.3359 180.215 30.1953C180.816 30.0547 181.445 29.9844 182.102 29.9844C183.406 29.9844 184.418 30.2695 185.137 30.8398C185.855 31.4102 186.215 32.2109 186.215 33.2422V37.918C186.215 38.8242 186.254 39.4805 186.332 39.8867C186.418 40.2852 186.461 40.5039 186.461 40.543C186.461 40.7148 186.328 40.8398 186.062 40.918C185.805 40.9883 185.562 41.0234 185.336 41.0234C185.148 41.0234 185.008 40.918 184.914 40.707C184.828 40.4961 184.742 40.1914 184.656 39.793L184.609 39.5586C184.18 40.0352 183.672 40.4141 183.086 40.6953C182.508 40.9766 181.848 41.1172 181.105 41.1172ZM181.199 39.6055C181.887 39.6055 182.473 39.4805 182.957 39.2305C183.441 38.9805 183.941 38.625 184.457 38.1641V35.7031C183.426 35.7109 182.578 35.7539 181.914 35.832C181.25 35.9102 180.668 36.1094 180.168 36.4297C179.668 36.7422 179.418 37.2305 179.418 37.8945C179.418 38.4492 179.566 38.875 179.863 39.1719C180.168 39.4609 180.613 39.6055 181.199 39.6055Z" fill="#070707"/>
</g>
<circle cx="53" cy="35" r="23" fill="#D9D9D9"/>
<path d="M59.8567 43.2001C60.409 43.2001 60.8567 42.7524 60.8567 42.2001C60.8567 41.6478 60.409 41.2001 59.8567 41.2001V43.2001ZM46.1427 41.2001C45.5904 41.2001 45.1427 41.6478 45.1427 42.2001C45.1427 42.7524 45.5904 43.2001 46.1427 43.2001V41.2001ZM43.3999 36.9019C42.8476 36.9019 42.3999 37.3496 42.3999 37.9019C42.3999 38.4542 42.8476 38.9019 43.3999 38.9019V36.9019ZM62.5995 38.9019C63.1517 38.9019 63.5995 38.4542 63.5995 37.9019C63.5995 37.3496 63.1517 36.9019 62.5995 36.9019V38.9019ZM45.2452 35.0483C45.7047 35.3547 46.3256 35.2305 46.6319 34.771C46.9383 34.3114 46.8141 33.6906 46.3546 33.3842L45.2452 35.0483ZM44.2975 32.0128C43.838 31.7065 43.2171 31.8306 42.9107 32.2902C42.6044 32.7497 42.7286 33.3706 43.1881 33.6769L44.2975 32.0128ZM49.1034 30.4596C49.3481 30.9547 49.9479 31.1576 50.443 30.9128C50.9381 30.668 51.141 30.0682 50.8962 29.5731L49.1034 30.4596ZM49.8004 27.3569C49.5556 26.8618 48.9558 26.6589 48.4607 26.9037C47.9657 27.1485 47.7628 27.7483 48.0076 28.2434L49.8004 27.3569ZM54.7907 29.3023C54.4843 29.7618 54.6085 30.3827 55.068 30.689C55.5275 30.9954 56.1484 30.8712 56.4548 30.4117L54.7907 29.3023ZM57.8262 28.3546C58.1325 27.8951 58.0083 27.2742 57.5488 26.9678C57.0893 26.6615 56.4684 26.7857 56.1621 27.2452L57.8262 28.3546ZM62.8021 33.7413C63.2972 33.4965 63.5001 32.8967 63.2553 32.4016C63.0105 31.9066 62.4107 31.7037 61.9157 31.9484L62.8021 33.7413ZM59.6995 33.0442C59.2044 33.289 59.0015 33.8888 59.2463 34.3839C59.4911 34.879 60.0908 35.0819 60.5859 34.8371L59.6995 33.0442ZM59.8567 41.2001H46.1427V43.2001H59.8567V41.2001ZM43.3999 38.9019H62.5995V36.9019H43.3999V38.9019ZM49.1998 37.9019C49.1998 35.8033 50.9011 34.102 52.9997 34.102V32.102C49.7965 32.102 47.1998 34.6987 47.1998 37.9019H49.1998ZM52.9997 34.102C55.0983 34.102 56.7996 35.8033 56.7996 37.9019H58.7996C58.7996 34.6987 56.2029 32.102 52.9997 32.102V34.102ZM46.3546 33.3842L44.2975 32.0128L43.1881 33.6769L45.2452 35.0483L46.3546 33.3842ZM50.8962 29.5731L49.8004 27.3569L48.0076 28.2434L49.1034 30.4596L50.8962 29.5731ZM56.4548 30.4117L57.8262 28.3546L56.1621 27.2452L54.7907 29.3023L56.4548 30.4117ZM61.9157 31.9484L59.6995 33.0442L60.5859 34.8371L62.8021 33.7413L61.9157 31.9484Z" fill="black"/>
<defs>
<filter id="filter0_d_71_38" x="0" y="0" width="238" height="77" filterUnits="userSpaceOnUse" color-interpolation-filters="sRGB">
<feFlood flood-opacity="0" result="BackgroundImageFix"/>
<feColorMatrix in="SourceAlpha" type="matrix" values="0 0 0 0 0 0 0 0 0 0 0 0 0 0 0 0 0 0 127 0" result="hardAlpha"/>
<feOffset dy="4"/>
<feGaussianBlur stdDeviation="2.5"/>
<feComposite in2="hardAlpha" operator="out"/>
<feColorMatrix type="matrix" values="0 0 0 0 0 0 0 0 0 0 0 0 0 0 0 0 0 0 0.25 0"/>
<feBlend mode="normal" in2="BackgroundImageFix" result="effect1_dropShadow_71_38"/>
<feBlend mode="normal" in="SourceGraphic" in2="effect1_dropShadow_71_38" result="shape"/>
</filter>
<filter id="filter1_d_71_38" x="93.4219" y="26.4219" width="97.0391" height="26.9961" filterUnits="userSpaceOnUse" color-interpolation-filters="sRGB">
<feFlood flood-opacity="0" result="BackgroundImageFix"/>
<feColorMatrix in="SourceAlpha" type="matrix" values="0 0 0 0 0 0 0 0 0 0 0 0 0 0 0 0 0 0 127 0" result="hardAlpha"/>
<feOffset dy="4"/>
<feGaussianBlur stdDeviation="2"/>
<feComposite in2="hardAlpha" operator="out"/>
<feColorMatrix type="matrix" values="0 0 0 0 0 0 0 0 0 0 0 0 0 0 0 0 0 0 0.25 0"/>
<feBlend mode="normal" in2="BackgroundImageFix" result="effect1_dropShadow_71_38"/>
<feBlend mode="normal" in="SourceGraphic" in2="effect1_dropShadow_71_38" result="shape"/>
</filter>
</defs>
</svg>
